<svg width="46" height="42" viewBox="0 0 46 42" fill="none" xmlns="http://www.w3.org/2000/svg" xmlns:xlink="http://www.w3.org/1999/xlink">
<path d="M15.021,20.239C14.6,20.239 14.186,20.056 13.897,19.712L0.004,3.219C-0.38,2.764 -0.464,2.118 -0.209,1.576C0.046,1.033 0.585,0.693 1.179,0.717L42.681,2.208C43.351,2.232 43.922,2.713 44.072,3.381C44.224,4.049 43.917,4.737 43.324,5.059L15.716,20.061C15.496,20.181 15.258,20.239 15.021,20.239ZM4.461,3.866L15.371,16.818L37.051,5.037L4.461,3.866Z" fill="#FFFFFF"/>
<path d="M20.631,41.232C20.559,41.232 20.487,41.227 20.415,41.216C19.832,41.129 19.355,40.698 19.2,40.116L13.591,19.123C13.408,18.44 13.713,17.718 14.325,17.386L41.933,2.384C42.524,2.062 43.255,2.187 43.713,2.688C44.171,3.19 44.241,3.943 43.887,4.524L21.887,40.52C21.614,40.967 21.137,41.232 20.631,41.232ZM16.763,19.493L21.168,35.979L38.443,7.712L16.763,19.493Z" fill="#FFFFFF"/>
</svg>
