<svg width="46" height="42" viewBox="0 0 46 42" fill="none" xmlns="http://www.w3.org/2000/svg" xmlns:xlink="http://www.w3.org/1999/xlink">
<path d="M15.966,20.239C15.536,20.239 15.114,20.056 14.818,19.712L0.62,3.219C0.227,2.764 0.142,2.118 0.402,1.576C0.662,1.033 1.213,0.693 1.821,0.717L44.234,2.208C44.919,2.232 45.503,2.713 45.656,3.381C45.811,4.049 45.497,4.737 44.891,5.059L16.676,20.061C16.452,20.181 16.208,20.239 15.966,20.239ZM5.174,3.866L16.324,16.818L38.48,5.037L5.174,3.866Z" fill="#FFFFFF"/>
<path d="M21.699,41.232C21.626,41.232 21.552,41.227 21.479,41.216C20.883,41.129 20.396,40.698 20.238,40.116L14.505,19.123C14.318,18.44 14.63,17.718 15.255,17.386L43.47,2.384C44.074,2.062 44.821,2.187 45.289,2.688C45.757,3.19 45.829,3.943 45.467,4.524L22.984,40.52C22.705,40.967 22.217,41.232 21.699,41.232ZM17.746,19.493L22.249,35.979L39.903,7.712L17.746,19.493Z" fill="#FFFFFF"/>
</svg>
