<svg width="46" height="42" viewBox="0 0 46 42" fill="none" xmlns="http://www.w3.org/2000/svg" xmlns:xlink="http://www.w3.org/1999/xlink">
<path d="M15.537,20.239C15.116,20.239 14.702,20.056 14.413,19.712L0.52,3.219C0.136,2.764 0.053,2.118 0.307,1.576C0.562,1.033 1.101,0.693 1.695,0.717L43.197,2.208C43.867,2.232 44.438,2.713 44.588,3.381C44.74,4.049 44.433,4.737 43.84,5.059L16.232,20.061C16.012,20.181 15.774,20.239 15.537,20.239ZM4.977,3.866L15.887,16.818L37.567,5.037L4.977,3.866Z" fill="#FFFFFF"/>
<path d="M21.147,41.232C21.075,41.232 21.003,41.227 20.931,41.216C20.348,41.129 19.871,40.698 19.716,40.116L14.107,19.123C13.924,18.44 14.229,17.718 14.841,17.386L42.449,2.384C43.04,2.062 43.771,2.187 44.229,2.688C44.687,3.19 44.757,3.943 44.403,4.524L22.403,40.52C22.13,40.967 21.653,41.232 21.147,41.232ZM17.279,19.493L21.684,35.979L38.959,7.712L17.279,19.493Z" fill="#FFFFFF"/>
</svg>
