<svg width="44" height="44" viewBox="0 0 44 44" fill="none" xmlns="http://www.w3.org/2000/svg" xmlns:xlink="http://www.w3.org/1999/xlink">
<path d="M43.232,9.579C42.138,4.124 37.312,0 31.539,0L29.828,0L35.158,9.579L43.232,9.579Z" fill="#FFFFFF"/>
<path d="M29.78,9.578L24.453,0.001L13.402,0.001L18.729,9.578L29.78,9.578Z" fill="#FFFFFF"/>
<path d="M8.333,0.556C4.237,1.855 1.092,5.307 0.235,9.579L13.353,9.579L8.333,0.556Z" fill="#FFFFFF"/>
<path d="M0,14.278L0,30.507C0,37.084 5.351,42.435 11.928,42.435L31.539,42.435C38.116,42.435 43.467,37.084 43.467,30.507L43.467,14.278L0,14.278ZM28.411,28.993L18.184,34.459C16.794,35.202 15.114,34.195 15.114,32.619L15.114,21.687C15.114,20.111 16.794,19.103 18.184,19.847L28.411,25.312C29.881,26.098 29.881,28.207 28.411,28.993Z" fill="#FFFFFF"/>
</svg>
