<svg width="60" height="60" viewBox="0 0 60 60" fill="none" xmlns="http://www.w3.org/2000/svg" xmlns:xlink="http://www.w3.org/1999/xlink">
<path d="M34,18.667C34,16.458 32.209,14.667 30,14.667C27.791,14.667 26,16.458 26,18.667L34,18.667ZM26,41.333C26,43.542 27.791,45.333 30,45.333C32.209,45.333 34,43.542 34,41.333L26,41.333ZM18.667,26C16.458,26 14.667,27.791 14.667,30C14.667,32.209 16.458,34 18.667,34L18.667,26ZM41.333,34C43.542,34 45.333,32.209 45.333,30C45.333,27.791 43.542,26 41.333,26L41.333,34ZM10.167,8.5L49.833,8.5L49.833,0.5L10.167,0.5L10.167,8.5ZM49.833,8.5C50.754,8.5 51.5,9.246 51.5,10.167L59.5,10.167C59.5,4.828 55.172,0.5 49.833,0.5L49.833,8.5ZM51.5,10.167L51.5,49.833L59.5,49.833L59.5,10.167L51.5,10.167ZM51.5,49.833C51.5,50.754 50.754,51.5 49.833,51.5L49.833,59.5C55.172,59.5 59.5,55.172 59.5,49.833L51.5,49.833ZM49.833,51.5L10.167,51.5L10.167,59.5L49.833,59.5L49.833,51.5ZM10.167,51.5C9.246,51.5 8.5,50.754 8.5,49.833L0.5,49.833C0.5,55.172 4.828,59.5 10.167,59.5L10.167,51.5ZM8.5,49.833L8.5,10.167L0.5,10.167L0.5,49.833L8.5,49.833ZM8.5,10.167C8.5,9.246 9.246,8.5 10.167,8.5L10.167,0.5C4.828,0.5 0.5,4.828 0.5,10.167L8.5,10.167ZM26,18.667L26,41.333L34,41.333L34,18.667L26,18.667ZM18.667,34L41.333,34L41.333,26L18.667,26L18.667,34Z" fill="#FFFFFF"/>
</svg>
