<svg width="38" height="34" viewBox="0 0 38 34" fill="none" xmlns="http://www.w3.org/2000/svg" xmlns:xlink="http://www.w3.org/1999/xlink">
<path d="M13.14,16.325C12.78,16.325 12.427,16.172 12.179,15.885L0.307,2.093C-0.022,1.712 -0.093,1.173 0.125,0.719C0.342,0.265 0.803,-0.019 1.311,0.001L36.777,1.247C37.35,1.267 37.838,1.67 37.967,2.229C38.096,2.787 37.834,3.363 37.327,3.632L13.733,16.177C13.546,16.277 13.342,16.325 13.14,16.325ZM4.115,2.634L13.439,13.464L31.966,3.613L4.115,2.634Z" fill="#FFFFFF" stroke="#FFFFFF" stroke-width="0.5" stroke-miterlimit="3.999327"/>
<path d="M17.934,33.88C17.872,33.88 17.811,33.875 17.749,33.867C17.251,33.794 16.844,33.433 16.711,32.947L11.918,15.392C11.761,14.821 12.022,14.218 12.545,13.94L36.139,1.395C36.644,1.126 37.268,1.23 37.659,1.65C38.051,2.069 38.111,2.698 37.808,3.185L19.008,33.284C18.774,33.658 18.366,33.88 17.934,33.88ZM14.628,15.701L18.393,29.487L33.156,5.85L14.628,15.701Z" fill="#FFFFFF" stroke="#FFFFFF" stroke-width="0.5" stroke-miterlimit="3.999327"/>
</svg>
