<svg width="34" height="40" viewBox="0 0 34 40" fill="none" xmlns="http://www.w3.org/2000/svg" xmlns:xlink="http://www.w3.org/1999/xlink">
<path d="M30.85,39.735C30.314,39.735 29.79,39.566 29.367,39.238L17.763,30.265C17.313,29.918 16.635,29.918 16.185,30.266L4.582,39.238C3.913,39.756 2.989,39.879 2.171,39.56C1.353,39.241 0.846,38.559 0.846,37.78L0.846,3.189C0.845,1.552 2.377,0.22 4.26,0.22L29.689,0.22C31.572,0.22 33.103,1.552 33.103,3.189L33.103,37.78C33.103,38.559 32.595,39.241 31.778,39.56C31.477,39.677 31.162,39.735 30.85,39.735ZM30.709,37.926C30.781,37.981 30.862,37.992 30.95,37.958C31.038,37.924 31.083,37.864 31.083,37.78L31.083,3.189C31.083,2.52 30.458,1.976 29.689,1.976L4.26,1.976C3.491,1.976 2.865,2.52 2.865,3.189L2.865,37.78C2.865,37.864 2.91,37.924 2.998,37.958C3.086,37.991 3.168,37.981 3.24,37.926L14.843,28.953C16.058,28.014 17.89,28.014 19.105,28.953L30.709,37.926Z" fill="#FFFFFF" stroke="#FFFFFF" stroke-width="0.5" stroke-miterlimit="3.999327"/>
</svg>
