<svg width="12" height="42" viewBox="0 0 12 42" fill="none" xmlns="http://www.w3.org/2000/svg" xmlns:xlink="http://www.w3.org/1999/xlink">
<path d="M7.72,0.185C4.65,1.794 1.275,6.335 0.209,12.038C-1.141,19.262 4.477,22.317 4.938,21.317C5.48,20.14 3.931,19.742 3.612,15.993C3.2,11.152 4.999,5.742 7.263,3.369C7.684,2.928 7.664,3.541 7.664,4.677C7.664,6.707 7.574,24.932 7.574,28.736C7.574,33.883 7.404,35.508 7.099,37.114C6.79,38.741 6.293,39.841 6.669,40.264C7.09,40.738 8.887,39.611 9.928,37.795C11.175,35.617 11.611,33 11.69,30.159C11.785,26.734 11.781,21.3 11.785,18.2C11.788,15.357 11.823,7.032 11.745,2.027C11.726,0.8 9.004,-0.488 7.72,0.185Z" fill="#FFFFFF"/>
</svg>
