<svg width="46" height="40" viewBox="0 0 46 40" fill="none" xmlns="http://www.w3.org/2000/svg" xmlns:xlink="http://www.w3.org/1999/xlink">
<path d="M22.974,38.835L3.687,19.548C1.473,17.333 0.253,14.389 0.253,11.257C0.253,8.125 1.473,5.181 3.687,2.966C5.902,0.752 8.846,-0.468 11.978,-0.468C15.11,-0.468 18.054,0.752 20.269,2.966L22.974,5.672L25.68,2.966C27.894,0.752 30.839,-0.468 33.97,-0.468C37.103,-0.468 40.047,0.752 42.261,2.966C44.476,5.181 45.696,8.125 45.696,11.257C45.696,14.389 44.476,17.333 42.261,19.548L22.974,38.835ZM11.978,1.551C9.386,1.551 6.949,2.561 5.115,4.394C3.282,6.227 2.272,8.665 2.272,11.257C2.272,13.849 3.282,16.287 5.115,18.12L22.974,35.979L40.833,18.12C42.667,16.287 43.676,13.849 43.676,11.257C43.676,8.665 42.667,6.227 40.833,4.394C39,2.561 36.563,1.551 33.97,1.551C31.378,1.551 28.941,2.561 27.108,4.394L22.974,8.528L18.84,4.394C17.008,2.561 14.57,1.551 11.978,1.551Z" fill="#FFFFFF"/>
</svg>
