<svg width="134" height="54" viewBox="0 0 134 54" fill="none" xmlns="http://www.w3.org/2000/svg" xmlns:xlink="http://www.w3.org/1999/xlink">
<path d="M100.744,24.272C100.645,26.947 100.171,29.039 99.584,30.514C98.446,33.37 96.086,34.257 95.084,30.151C94.538,27.913 94.512,24.176 94.905,21.053C95.305,17.872 96.421,15.469 98.269,15.686C100.091,15.9 100.944,18.838 100.744,24.272ZM70.016,40.872C69.991,45.318 69.432,49.216 68.232,50.348C66.531,51.954 64.245,50.749 64.719,47.505C65.137,44.634 67.118,41.703 70.021,38.12C70.021,38.12 70.027,38.937 70.016,40.872ZM69.551,24.245C69.447,26.682 68.942,29.131 68.391,30.514C67.254,33.37 64.877,34.263 63.891,30.151C63.218,27.342 63.379,23.706 63.712,21.416C64.145,18.444 65.193,15.686 67.076,15.686C68.907,15.686 69.809,18.199 69.551,24.245ZM51.751,24.208C51.639,26.789 51.237,28.947 50.591,30.514C49.422,33.35 47.111,34.25 46.091,30.151C45.356,27.196 45.606,23.166 45.912,20.99C46.366,17.759 47.502,15.469 49.276,15.686C51.098,15.909 51.983,18.838 51.751,24.208ZM133.326,27.223C132.881,27.223 132.677,27.798 132.509,28.764C131.926,32.126 131.313,32.885 130.522,32.885C129.639,32.885 128.846,31.221 128.642,27.888C128.481,25.268 128.507,20.444 128.712,15.646C128.754,14.66 128.537,13.685 126.423,12.724C125.513,12.311 124.191,11.702 123.533,13.69C121.673,19.307 120.946,23.765 120.775,25.576C120.766,25.67 120.674,25.689 120.658,25.47C120.549,24.02 120.305,21.383 120.274,15.845C120.269,14.764 120.086,13.844 119.132,13.091C118.514,12.602 116.635,11.738 115.959,12.766C115.373,13.607 114.694,15.87 113.989,18.553C113.416,20.733 113.016,22.208 113.016,22.208C113.016,22.208 113.024,16.325 113.031,14.094C113.034,13.252 112.572,12.971 112.433,12.921C111.807,12.693 110.573,12.313 110.049,12.313C109.402,12.313 109.244,12.765 109.244,13.424C109.244,13.51 109.142,21.169 109.142,26.525C109.142,26.757 109.142,27.011 109.143,27.281C108.786,29.742 107.626,33.084 106.365,33.084C105.103,33.084 104.507,31.687 104.507,25.302C104.507,21.578 104.597,19.958 104.641,17.264C104.666,15.712 104.715,14.521 104.713,14.25C104.703,13.421 103.557,13.003 103.024,12.849C102.488,12.693 102.023,12.633 101.659,12.659C101.144,12.695 100.78,13.117 100.78,13.698C100.78,14.01 100.783,14.602 100.783,14.602C100.12,13.299 99.054,12.392 98.345,12.129C96.435,11.419 94.441,12.049 92.938,14.681C91.743,16.772 91.023,19.141 90.739,22.544C90.532,25.033 90.599,27.556 90.968,29.689C90.523,32.097 89.696,33.084 88.791,33.084C87.478,33.084 86.525,30.401 86.636,25.761C86.709,22.71 87.197,20.568 87.73,17.47C87.958,16.149 87.773,15.458 87.309,14.795C86.884,14.187 85.978,13.877 84.676,14.259C83.748,14.531 82.422,14.824 81.209,15.049C81.209,15.049 81.282,14.683 81.342,14.039C81.658,10.659 78.722,10.934 77.786,12.013C77.227,12.657 76.846,13.417 76.702,14.784C76.473,16.953 77.887,17.975 77.887,17.975C77.423,20.632 76.286,24.102 75.112,26.61C74.483,27.955 74.002,28.951 73.382,30.009C73.379,29.615 73.378,29.221 73.377,28.828C73.362,23.244 73.422,18.849 73.448,17.264C73.474,15.713 73.523,14.553 73.52,14.282C73.513,13.676 73.23,13.447 72.642,13.157C72.121,12.9 71.505,12.723 70.867,12.661C70.061,12.583 69.575,13.117 69.588,13.749C69.591,13.869 69.591,14.602 69.591,14.602C68.928,13.299 67.862,12.392 67.153,12.129C65.242,11.42 63.249,12.049 61.745,14.681C60.551,16.772 59.768,19.707 59.546,22.518C59.34,25.139 59.378,27.365 59.66,29.241C59.356,31.119 58.482,33.084 57.495,33.084C56.233,33.084 55.514,31.687 55.514,25.302C55.514,21.578 55.604,19.958 55.648,17.264C55.673,15.713 55.722,14.521 55.72,14.251C55.71,13.422 54.564,13.004 54.031,12.849C53.473,12.687 52.991,12.628 52.621,12.662C52.133,12.708 51.79,13.254 51.79,13.662L51.79,14.602C51.127,13.299 50.061,12.392 49.352,12.129C47.442,11.42 45.46,12.059 43.945,14.681C42.957,16.39 42.158,18.286 41.746,22.481C41.627,23.694 41.575,24.829 41.581,25.89C41.187,28.904 39.448,32.377 38.025,32.377C37.192,32.377 36.399,30.357 36.399,26.05C36.399,20.314 36.683,12.146 36.731,11.359C36.731,11.359 38.529,11.321 38.877,11.316C39.774,11.303 40.586,11.33 41.781,11.254C42.38,11.215 42.957,8.525 42.339,8.192C42.058,8.042 40.078,7.91 39.292,7.889C38.632,7.87 36.794,7.7 36.794,7.7C36.794,7.7 36.959,2.279 36.997,1.706C37.03,1.229 36.536,0.983 36.253,0.834C35.565,0.469 34.949,0.295 34.219,0.107C33.211,-0.153 32.753,0.101 32.664,1.166C32.529,2.782 32.46,7.516 32.46,7.516C31.72,7.516 29.192,7.335 28.451,7.335C27.764,7.335 27.021,11.035 27.972,11.081C29.066,11.134 30.973,11.18 32.237,11.227C32.237,11.227 32.18,19.53 32.18,22.093C32.18,22.366 32.181,22.628 32.183,22.883C31.487,27.419 29.037,29.869 29.037,29.869C29.563,26.868 28.488,24.615 26.552,22.707C25.839,22.004 24.431,20.673 22.855,19.215C22.855,19.215 23.768,18.09 24.577,15.826C25.15,14.222 25.175,12.388 23.768,11.983C21.442,11.314 19.525,13.451 18.953,15.732C18.51,17.499 18.746,18.81 19.614,20.172C19.678,20.272 19.746,20.373 19.817,20.476C19.292,21.741 18.571,23.446 17.961,24.767C16.265,28.437 14.985,31.339 14.017,31.339C13.243,31.339 13.254,28.392 13.254,25.633C13.254,23.255 13.394,19.679 13.506,15.977C13.543,14.752 13.054,14.055 12.234,13.423C11.735,13.039 10.672,12.285 10.056,12.285C9.133,12.285 6.473,12.442 3.959,21.539C3.642,22.686 3.02,24.775 3.02,24.775L3.074,13.835C3.074,13.579 2.965,13.331 2.715,13.161C2.291,12.873 1.159,12.285 0.154,12.285C-0.326,12.285 -0.565,12.564 -0.565,13.12L-0.653,30.235C-0.653,31.536 -0.626,33.053 -0.523,33.716C-0.42,34.38 -0.254,34.921 -0.049,35.242C0.156,35.563 0.393,35.808 0.785,35.909C1.149,36.003 3.143,36.323 3.246,35.37C3.371,34.227 3.375,32.992 4.422,28.383C6.052,21.207 8.177,17.707 9.177,16.463C9.351,16.246 9.551,16.233 9.541,16.589C9.499,18.162 9.349,22.093 9.248,25.432C8.977,34.369 10.276,36.026 12.134,36.026C13.554,36.026 15.557,34.26 17.704,29.789C19.042,27.003 20.342,24.271 21.275,22.302C21.926,23.056 22.656,23.867 23.386,24.733C25.082,26.747 25.638,28.66 25.269,30.475C24.987,31.863 23.923,33.293 22.029,31.903C21.477,31.497 21.241,31.184 20.686,30.727C20.388,30.481 19.933,30.408 19.66,30.665C18.951,31.334 18.546,32.185 18.314,33.238C18.089,34.263 18.909,34.804 19.76,35.278C20.492,35.686 22.066,36.056 23.069,36.098C26.98,36.261 30.112,33.735 32.293,27.22C32.683,32.847 34.345,36.031 37.231,36.031C39.161,36.031 41.096,32.91 41.942,29.84C42.185,31.092 42.544,32.18 43.008,33.1C45.233,37.509 49.547,36.56 51.715,32.816C52.385,31.66 52.487,31.244 52.487,31.244C52.803,34.779 55.078,36.014 56.381,36.014C57.84,36.014 59.347,35.151 60.403,32.177C60.526,32.5 60.661,32.808 60.809,33.1C63.033,37.509 67.348,36.56 69.515,32.816C69.617,32.641 69.706,32.482 69.783,32.338L69.847,34.661C69.847,34.661 68.611,36.08 67.852,36.95C64.507,40.785 61.966,43.694 61.779,47.082C61.542,51.401 64.34,53.007 66.46,53.217C68.708,53.44 70.636,51.886 71.819,49.71C72.861,47.795 73.543,43.673 73.493,39.601C73.473,37.971 73.44,35.898 73.414,33.676C74.588,31.97 75.911,29.814 77.129,27.291C78.456,24.541 79.879,20.847 80.607,17.973C80.607,17.973 81.843,17.986 83.162,17.878C83.584,17.844 83.705,17.952 83.627,18.339C83.533,18.806 81.961,26.393 83.396,31.447C84.378,34.907 86.592,36.02 87.905,36.02C89.441,36.02 90.911,34.569 91.699,32.413C91.794,32.653 91.893,32.886 92.001,33.1C94.226,37.509 98.525,36.555 100.708,32.816C101.2,31.973 101.48,31.244 101.48,31.244C101.948,34.903 104.222,36.033 105.525,36.033C106.882,36.033 108.169,35.337 109.214,32.244C109.258,33.606 109.326,34.719 109.435,35.07C109.501,35.285 109.887,35.555 110.167,35.685C111.408,36.261 112.674,35.988 113.143,35.87C113.467,35.788 113.72,35.462 113.755,34.621C113.846,32.413 113.79,28.703 114.325,25.946C115.223,21.319 116.061,19.524 116.458,18.635C116.681,18.137 116.932,18.055 116.941,18.582C116.959,19.648 117.002,22.779 117.35,26.985C117.605,30.079 117.947,31.908 118.209,32.486C118.957,34.141 119.882,34.22 120.635,34.22C121.114,34.22 122.116,34.054 122.026,33.001C121.982,32.488 122.059,29.315 122.944,24.757C123.522,21.78 124.486,19.09 124.834,18.106C124.962,17.744 125.022,18.03 125.02,18.085C124.947,20.135 124.782,26.841 125.45,30.509C126.355,35.477 128.973,36.033 129.885,36.033C131.832,36.033 133.425,34.179 133.961,29.303C134.091,28.129 133.899,27.223 133.326,27.223Z" fill="#FFFFFF"/>
</svg>
