<svg width="46" height="46" viewBox="0 0 46 46" fill="none" xmlns="http://www.w3.org/2000/svg" xmlns:xlink="http://www.w3.org/1999/xlink">
<path d="M42.908,45.696C42.726,45.696 42.544,45.662 42.368,45.592L33.961,42.231C30.425,44.501 26.362,45.696 22.158,45.696C9.898,45.696 -0.075,35.503 -0.075,22.974C-0.075,10.446 9.898,0.253 22.158,0.253C34.417,0.253 44.39,10.446 44.39,22.974C44.39,27.271 43.221,31.424 41.001,35.038L44.289,43.63C44.503,44.19 44.373,44.827 43.956,45.252C43.673,45.541 43.294,45.696 42.908,45.696ZM22.158,3.282C11.533,3.282 2.889,12.116 2.889,22.974C2.889,33.833 11.533,42.666 22.158,42.666C26.031,42.666 29.765,41.496 32.959,39.283C33.363,39.003 33.875,38.944 34.33,39.126L40.294,41.509L37.961,35.415C37.783,34.951 37.841,34.426 38.115,34.013C40.281,30.749 41.426,26.932 41.426,22.974C41.426,12.116 32.782,3.282 22.158,3.282Z" fill="#FFFFFF"/>
</svg>
