<svg width="46" height="40" viewBox="0 0 46 40" fill="none" xmlns="http://www.w3.org/2000/svg" xmlns:xlink="http://www.w3.org/1999/xlink">
<path d="M21.964,38.835L3.092,19.548C0.925,17.333 -0.269,14.389 -0.269,11.257C-0.269,8.125 0.925,5.181 3.092,2.966C5.259,0.752 8.14,-0.468 11.204,-0.468C14.269,-0.468 17.15,0.752 19.317,2.966L21.964,5.672L24.611,2.966C26.778,0.752 29.66,-0.468 32.724,-0.468C35.788,-0.468 38.669,0.752 40.836,2.966C43.004,5.181 44.197,8.125 44.197,11.257C44.197,14.389 43.004,17.333 40.836,19.548L21.964,38.835ZM11.204,1.551C8.668,1.551 6.283,2.561 4.489,4.394C2.695,6.227 1.707,8.665 1.707,11.257C1.707,13.849 2.696,16.287 4.489,18.12L21.964,35.979L39.439,18.12C41.233,16.287 42.221,13.849 42.221,11.257C42.221,8.665 41.233,6.227 39.439,4.394C37.645,2.561 35.261,1.551 32.724,1.551C30.187,1.551 27.802,2.561 26.008,4.394L21.964,8.528L17.919,4.394C16.126,2.561 13.741,1.551 11.204,1.551Z" fill="#FFFFFF"/>
</svg>
