<svg width="34" height="40" viewBox="0 0 34 40" fill="none" xmlns="http://www.w3.org/2000/svg" xmlns:xlink="http://www.w3.org/1999/xlink">
<path d="M30.251,39.735C29.727,39.735 29.214,39.566 28.8,39.238L17.446,30.265C17.006,29.918 16.342,29.918 15.902,30.266L4.548,39.238C3.893,39.756 2.99,39.879 2.189,39.56C1.389,39.241 0.892,38.559 0.892,37.78L0.892,3.189C0.892,1.552 2.39,0.22 4.233,0.22L29.115,0.22C30.957,0.22 32.456,1.552 32.456,3.189L32.456,37.78C32.456,38.559 31.959,39.241 31.159,39.56C30.865,39.677 30.556,39.735 30.251,39.735ZM30.113,37.926C30.183,37.981 30.262,37.992 30.349,37.958C30.435,37.924 30.479,37.864 30.479,37.78L30.479,3.189C30.479,2.52 29.867,1.976 29.115,1.976L4.233,1.976C3.48,1.976 2.868,2.52 2.868,3.189L2.868,37.78C2.868,37.864 2.912,37.924 2.998,37.958C3.084,37.991 3.164,37.981 3.235,37.926L14.589,28.953C15.777,28.014 17.57,28.014 18.759,28.953L30.113,37.926Z" fill="#FFFFFF" stroke="#FFFFFF" stroke-width="0.5" stroke-miterlimit="3.999327"/>
</svg>
