<svg width="48" height="48" viewBox="0 0 48 48" fill="none" xmlns="http://www.w3.org/2000/svg" xmlns:xlink="http://www.w3.org/1999/xlink">
<path d="M44.333,14.023L29.05,1.797C26.063,-0.583 21.396,-0.607 18.433,1.773L3.15,14.023C0.956,15.773 -0.374,19.273 0.093,22.027L3.033,39.62C3.71,43.563 7.373,46.667 11.363,46.667L36.096,46.667C40.04,46.667 43.773,43.493 44.45,39.597L47.39,22.003C47.81,19.273 46.48,15.773 44.333,14.023ZM25.48,37.333C25.48,38.29 24.686,39.083 23.73,39.083C22.773,39.083 21.98,38.29 21.98,37.333L21.98,30.333C21.98,29.377 22.773,28.583 23.73,28.583C24.686,28.583 25.48,29.377 25.48,30.333L25.48,37.333Z" fill="#D5D5D5"/>
</svg>
