<svg width="46" height="46" viewBox="0 0 46 46" fill="none" xmlns="http://www.w3.org/2000/svg" xmlns:xlink="http://www.w3.org/1999/xlink">
<path d="M44.18,45.696C43.995,45.696 43.808,45.662 43.629,45.592L35.037,42.231C31.424,44.5 27.271,45.696 22.974,45.696C10.446,45.696 0.253,35.503 0.253,22.974C0.253,10.446 10.446,0.253 22.974,0.253C35.503,0.253 45.696,10.446 45.696,22.974C45.696,27.27 44.501,31.423 42.231,35.038L45.592,43.629C45.811,44.19 45.678,44.827 45.252,45.252C44.963,45.541 44.575,45.696 44.18,45.696ZM22.974,3.282C12.116,3.282 3.282,12.116 3.282,22.974C3.282,33.832 12.116,42.666 22.974,42.666C26.932,42.666 30.749,41.496 34.013,39.283C34.426,39.003 34.95,38.944 35.415,39.126L41.509,41.509L39.125,35.415C38.943,34.95 39.003,34.426 39.283,34.013C41.496,30.749 42.666,26.932 42.666,22.974C42.666,12.116 33.833,3.282 22.974,3.282Z" fill="#FFFFFF"/>
</svg>
