<svg width="44" height="46" viewBox="0 0 44 46" fill="none" xmlns="http://www.w3.org/2000/svg" xmlns:xlink="http://www.w3.org/1999/xlink">
<path d="M42.392,45.696C42.21,45.696 42.027,45.662 41.852,45.592L33.445,42.231C29.909,44.501 25.845,45.696 21.641,45.696C9.382,45.696 -0.591,35.503 -0.591,22.974C-0.591,10.446 9.382,0.253 21.641,0.253C33.901,0.253 43.874,10.446 43.874,22.974C43.874,27.271 42.705,31.424 40.485,35.038L43.773,43.63C43.987,44.19 43.857,44.827 43.44,45.252C43.157,45.541 42.777,45.696 42.392,45.696ZM21.641,3.282C11.017,3.282 2.373,12.116 2.373,22.974C2.373,33.833 11.017,42.666 21.641,42.666C25.514,42.666 29.249,41.496 32.443,39.283C32.847,39.003 33.359,38.944 33.814,39.126L39.778,41.509L37.445,35.415C37.267,34.951 37.325,34.426 37.599,34.013C39.765,30.749 40.91,26.932 40.91,22.974C40.91,12.116 32.266,3.282 21.641,3.282Z" fill="#FFFFFF"/>
</svg>
