<svg width="42" height="36" viewBox="0 0 42 36" fill="none" xmlns="http://www.w3.org/2000/svg" xmlns:xlink="http://www.w3.org/1999/xlink">
<path d="M21,36L3.174,18.334C1.127,16.305 0,13.608 0,10.74C0,7.871 1.127,5.174 3.174,3.146C5.221,1.117 7.942,0 10.837,0C13.732,0 16.453,1.117 18.5,3.146L21,5.624L23.5,3.146C25.547,1.117 28.269,0 31.163,0C34.058,0 36.779,1.117 38.826,3.146C40.873,5.174 42,7.871 42,10.74C42,13.609 40.873,16.305 38.826,18.334L21,36ZM10.837,1.85C8.441,1.85 6.188,2.775 4.494,4.454C2.8,6.133 1.867,8.365 1.867,10.74C1.867,13.114 2.8,15.347 4.494,17.026L21,33.384L37.506,17.026C39.2,15.347 40.133,13.114 40.133,10.74C40.133,8.365 39.2,6.133 37.506,4.454C35.812,2.775 33.559,1.85 31.163,1.85C28.767,1.85 26.515,2.775 24.82,4.454L21,8.24L17.179,4.454C15.485,2.775 13.233,1.85 10.837,1.85Z" fill="#FFFFFF" stroke="#FFFFFF" stroke-width="0.5" stroke-miterlimit="3.999327"/>
</svg>
