<svg width="44" height="40" viewBox="0 0 44 40" fill="none" xmlns="http://www.w3.org/2000/svg" xmlns:xlink="http://www.w3.org/1999/xlink">
<path d="M21.448,38.835L2.576,19.548C0.409,17.333 -0.785,14.389 -0.785,11.257C-0.785,8.125 0.409,5.181 2.576,2.966C4.743,0.752 7.624,-0.468 10.688,-0.468C13.753,-0.468 16.634,0.752 18.801,2.966L21.448,5.672L24.095,2.966C26.262,0.752 29.143,-0.468 32.208,-0.468C35.272,-0.468 38.153,0.752 40.32,2.966C42.488,5.181 43.681,8.125 43.681,11.257C43.681,14.389 42.488,17.333 40.32,19.548L21.448,38.835ZM10.688,1.551C8.152,1.551 5.767,2.561 3.973,4.394C2.179,6.227 1.191,8.665 1.191,11.257C1.191,13.849 2.179,16.287 3.973,18.12L21.448,35.979L38.923,18.12C40.717,16.287 41.704,13.849 41.704,11.257C41.704,8.665 40.717,6.227 38.923,4.394C37.129,2.561 34.745,1.551 32.208,1.551C29.671,1.551 27.286,2.561 25.492,4.394L21.448,8.528L17.403,4.394C15.61,2.561 13.225,1.551 10.688,1.551Z" fill="#FFFFFF"/>
</svg>
