<svg width="32" height="40" viewBox="0 0 32 40" fill="none" xmlns="http://www.w3.org/2000/svg" xmlns:xlink="http://www.w3.org/1999/xlink">
<path d="M29.735,39.735C29.211,39.735 28.697,39.566 28.283,39.238L16.93,30.265C16.49,29.918 15.826,29.918 15.386,30.266L4.032,39.238C3.377,39.756 2.474,39.879 1.673,39.56C0.873,39.241 0.376,38.559 0.376,37.78L0.376,3.189C0.376,1.552 1.874,0.22 3.717,0.22L28.599,0.22C30.441,0.22 31.939,1.552 31.939,3.189L31.939,37.78C31.939,38.559 31.442,39.241 30.643,39.56C30.349,39.677 30.04,39.735 29.735,39.735ZM29.597,37.926C29.667,37.981 29.746,37.992 29.833,37.958C29.919,37.924 29.963,37.864 29.963,37.78L29.963,3.189C29.963,2.52 29.351,1.976 28.599,1.976L3.717,1.976C2.964,1.976 2.352,2.52 2.352,3.189L2.352,37.78C2.352,37.864 2.395,37.924 2.482,37.958C2.568,37.991 2.648,37.981 2.719,37.926L14.073,28.953C15.261,28.014 17.054,28.014 18.243,28.953L29.597,37.926Z" fill="#FFFFFF" stroke="#FFFFFF" stroke-width="0.5" stroke-miterlimit="3.999327"/>
</svg>
